HIERARCHY
ROOT root
{
	OFFSET 0.000000 0.000000 0.000000
	CHANNELS 6 Xposition Yposition Zposition Zrotation Yrotation Xrotation
	JOINT lhip
	{
		OFFSET 0.058581 -0.082280 -0.017664
		CHANNELS 3 Zrotation Yrotation Xrotation
		JOINT lknee
		{
			OFFSET 0.043451 -0.386469 0.008037
			CHANNELS 3 Zrotation Yrotation Xrotation
			JOINT lankle
			{
				OFFSET -0.014790 -0.426874 -0.037428
				CHANNELS 3 Zrotation Yrotation Xrotation
				JOINT ltoe
				{
					OFFSET 0.041054 -0.060286 0.122042
					CHANNELS 3 Zrotation Yrotation Xrotation
					End Site
					{
						OFFSET 0.000000 0.000000 0.000000
					}
				}
			}
		}
	}
	JOINT rhip
	{
		OFFSET -0.060310 -0.090513 -0.013543
		CHANNELS 3 Zrotation Yrotation Xrotation
		JOINT rknee
		{
			OFFSET -0.043257 -0.383688 -0.004843
			CHANNELS 3 Zrotation Yrotation Xrotation
			JOINT rankle
			{
				OFFSET 0.019056 -0.420046 -0.034562
				CHANNELS 3 Zrotation Yrotation Xrotation
				JOINT rtoe
				{
					OFFSET -0.034840 -0.062106 0.130323
					CHANNELS 3 Zrotation Yrotation Xrotation
					End Site
					{
						OFFSET 0.000000 0.000000 0.000000
					}
				}
			}
		}
	}
	JOINT lowerback
	{
		OFFSET 0.004439 0.124404 -0.038385
		CHANNELS 3 Zrotation Yrotation Xrotation
		JOINT upperback
		{
			OFFSET 0.004488 0.137956 0.026820
			CHANNELS 3 Zrotation Yrotation Xrotation
			JOINT chest
			{
				OFFSET -0.002265 0.056032 0.002855
				CHANNELS 3 Zrotation Yrotation Xrotation
				JOINT lowerneck
				{
					OFFSET -0.013390 0.211636 -0.033468
					CHANNELS 3 Zrotation Yrotation Xrotation
					JOINT upperneck
					{
						OFFSET 0.010113 0.088937 0.050410
						CHANNELS 3 Zrotation Yrotation Xrotation
						End Site
						{
							OFFSET 0.000000 0.000000 0.000000
						}
					}
				}
				JOINT lclavicle
				{
					OFFSET 0.071702 0.114000 -0.018898
					CHANNELS 3 Zrotation Yrotation Xrotation
					JOINT lshoulder
					{
						OFFSET 0.122921 0.045205 -0.019046
						CHANNELS 3 Zrotation Yrotation Xrotation
						JOINT lelbow
						{
							OFFSET 0.255332 -0.015649 -0.022946
							CHANNELS 3 Zrotation Yrotation Xrotation
							JOINT lwrist
							{
								OFFSET 0.265709 0.012698 -0.007375
								CHANNELS 3 Zrotation Yrotation Xrotation
								End Site
								{
									OFFSET 0.000000 0.000000 0.000000
								}
							}
						}
					}
				}
				JOINT rclavicle
				{
					OFFSET -0.082954 0.112472 -0.023707
					CHANNELS 3 Zrotation Yrotation Xrotation
					JOINT rshoulder
					{
						OFFSET -0.113228 0.046853 -0.008472
						CHANNELS 3 Zrotation Yrotation Xrotation
						JOINT relbow
						{
							OFFSET -0.260127 -0.014369 -0.031269
							CHANNELS 3 Zrotation Yrotation Xrotation
							JOINT rwrist
							{
								OFFSET -0.269108 0.006794 -0.006027
								CHANNELS 3 Zrotation Yrotation Xrotation
								End Site
								{
									OFFSET 0.000000 0.000000 0.000000
								}
							}
						}
					}
				}
			}
		}
	}
}
MOTION
Frames: 13
Frame Time: 0.033333
-0.259252 0.243605 0.993965 93.779415 1.304008 87.223632 -0.264289 -2.139540 0.297533 -0.688685 -8.820247 5.432491 2.685354 10.009929 -12.855229 0.000000 -0.000000 0.000000 -0.803899 -1.234228 4.692839 1.516130 -0.999833 -1.767953 1.224214 -8.015986 -9.615628 0.000000 -0.000000 0.000000 -0.354566 0.856238 0.060650 1.823338 -4.817374 6.400869 1.719151 -1.997075 -3.572289 -5.611366 0.376654 8.229698 3.343735 -0.837986 -3.564094 -17.560935 -0.702151 5.426167 -64.186621 -2.621254 16.687042 6.263129 -21.941583 9.225933 -15.438482 -17.534007 1.502530 17.388752 4.348523 5.311389 63.269133 -0.183160 11.312696 -5.619694 13.255733 -3.466039 13.403357 14.721072 -17.494860 
-0.259405 0.244446 0.993665 92.803902 1.400954 87.130989 -0.211148 -1.960946 0.414277 -0.706633 -8.242470 5.596063 2.704864 10.129272 -13.012358 0.000000 -0.000000 0.000000 -0.834529 -1.221068 4.564149 1.501333 -0.631423 -1.580863 1.478862 -7.545293 -9.753641 0.000000 -0.000000 0.000000 -0.115008 0.999603 0.151883 2.021998 -4.748208 6.046446 1.733745 -2.145266 -3.238728 -5.394517 0.532487 8.717504 3.219521 -0.845656 -3.678177 -17.743983 -0.704022 5.250034 -64.181957 -2.274417 16.520833 6.274803 -23.049743 10.068347 -16.548022 -17.463445 2.385082 17.320114 4.505062 4.629961 60.491411 0.577766 11.428771 -6.266111 14.498494 -1.459247 15.307818 14.528049 -14.055082 
-0.259844 0.245358 0.993729 91.818984 1.415628 87.041433 -0.243512 -1.850459 0.554126 -0.700305 -7.493908 5.717911 2.779978 10.168254 -13.138166 0.000000 -0.000000 0.000000 -0.982916 -1.144013 4.403981 1.528251 -0.414570 -1.342279 1.652291 -6.904056 -9.920781 0.000000 -0.000000 0.000000 0.029553 1.164054 -0.017389 2.270297 -4.753125 6.395676 1.617064 -2.201114 -3.287985 -5.055694 0.950811 9.048940 3.132861 -1.320579 -3.671080 -17.992999 -0.804657 4.844705 -64.029482 -2.104533 15.413816 6.625462 -23.791444 9.870237 -18.559452 -17.442099 4.851292 17.501439 5.180681 4.202921 57.437125 1.165060 12.155637 -6.869597 16.215498 4.103064 17.714237 14.026890 -4.309478 
-0.260375 0.246867 0.994007 90.664040 1.393753 87.025841 -0.361040 -1.720533 0.651114 -0.659601 -6.724311 5.790608 2.948133 10.315412 -13.236582 0.000000 -0.000000 0.000000 -1.178324 -0.957699 4.107881 1.550565 -0.161239 -1.069607 1.791333 -6.210976 -10.032199 0.000000 -0.000000 0.000000 0.263337 1.328349 -0.466907 2.413467 -4.801923 7.109427 1.321644 -1.959253 -3.581729 -4.693785 1.126463 9.494294 3.167865 -1.929498 -3.475158 -18.136930 -1.156594 4.421582 -63.741844 -2.265117 14.274771 7.457606 -24.084884 8.501163 -19.913255 -17.392075 6.968458 17.395305 6.306960 3.953029 54.721583 2.317416 12.306871 -8.013065 17.332364 7.422242 19.000999 13.681719 4.270914 
-0.260663 0.247716 0.994084 90.055771 1.380234 87.071696 -0.447223 -1.609079 0.618894 -0.630378 -6.412085 5.829716 2.998237 10.451579 -13.262253 0.000000 -0.000000 0.000000 -1.258734 -0.850485 3.879755 1.537374 0.038706 -0.948318 1.843302 -5.961632 -9.985921 0.000000 -0.000000 0.000000 0.465135 1.376415 -0.550917 2.358375 -4.752581 7.150651 1.137681 -1.733627 -3.711253 -4.580065 0.878726 9.691161 3.217603 -2.098218 -3.228094 -18.032305 -1.353536 4.300280 -63.572627 -2.569951 14.174615 7.967305 -24.057728 7.500577 -19.307882 -17.372097 6.585297 17.013120 6.824313 3.753932 53.988098 3.324520 11.826287 -8.762612 16.999332 5.705238 18.167626 13.767927 3.881344 
-0.261197 0.248752 0.994150 89.383407 1.340862 87.057525 -0.571981 -1.394008 0.656964 -0.614705 -6.160329 5.818311 3.050119 10.635949 -13.259111 0.000000 -0.000000 0.000000 -1.375118 -0.707125 3.711268 1.522452 0.311736 -0.880995 1.889000 -5.760366 -9.877191 0.000000 -0.000000 0.000000 0.752931 1.398189 -0.300830 2.152672 -4.612563 6.817524 0.922302 -1.465516 -3.760934 -4.498387 0.308721 9.789196 3.308676 -2.129633 -2.905091 -17.894423 -1.589605 4.255926 -63.209694 -3.094098 14.425676 8.714597 -24.088832 6.361126 -17.400048 -17.317253 4.993572 16.475954 7.242979 3.374184 53.632281 4.832617 10.706218 -9.813689 16.263411 0.687338 15.742362 14.075209 -0.862975 
-0.262260 0.249787 0.994276 89.002609 1.270017 87.069546 -0.675063 -1.176103 0.623194 -0.631795 -6.045125 5.833798 3.184742 10.697222 -13.296236 0.000000 -0.000000 0.000000 -1.521713 -0.614816 3.620793 1.529247 0.511241 -0.941498 1.961874 -5.658509 -9.720257 0.000000 -0.000000 0.000000 0.778193 1.431432 0.054497 2.034223 -4.530018 6.452598 0.846984 -1.342854 -3.810168 -4.437622 -0.240503 9.709046 3.418868 -2.117082 -2.690034 -17.786009 -1.667044 4.097693 -62.833076 -3.623012 14.743896 9.557750 -24.155454 5.376657 -15.421379 -17.220490 3.497601 16.155633 7.269311 2.861821 53.619536 6.199681 9.462131 -11.130298 16.307283 -4.874624 13.098771 14.473015 -6.282569 
-0.263435 0.250662 0.994347 88.864860 1.245809 87.218982 -0.723665 -1.088977 0.435224 -0.626297 -5.916021 5.806907 3.290771 10.630575 -13.273692 0.000000 -0.000000 0.000000 -1.580914 -0.545154 3.428907 1.508091 0.542180 -1.033074 2.008268 -5.597260 -9.595058 0.000000 -0.000000 0.000000 0.694781 1.475075 0.238122 2.024819 -4.548150 6.212483 0.853470 -1.327222 -3.849587 -4.396210 -0.598555 9.519403 3.548734 -2.242039 -2.692406 -17.603578 -1.785855 3.873575 -62.622659 -4.134897 14.773807 10.455069 -24.193460 4.210761 -14.197381 -17.151784 2.656222 15.955928 7.258744 2.360248 53.847316 7.165027 8.533647 -12.715234 17.066242 -8.843250 11.381272 15.008220 -9.549904 
-0.264321 0.251366 0.994431 88.875058 1.233757 87.391340 -0.757023 -1.070980 0.268605 -0.618097 -5.815524 5.686860 3.346080 10.502912 -13.204719 0.000000 -0.000000 0.000000 -1.610902 -0.498858 3.250738 1.481154 0.460475 -1.134569 2.010643 -5.544701 -9.481920 0.000000 -0.000000 0.000000 0.584136 1.499143 0.283656 2.044165 -4.612888 6.157756 0.884238 -1.402154 -3.874042 -4.325490 -0.728151 9.271229 3.650822 -2.481628 -2.845212 -17.461918 -2.024200 3.695508 -62.405917 -4.593516 14.492596 11.284872 -24.291349 2.983690 -13.446139 -17.122069 2.229267 15.924392 7.418010 2.044316 54.064518 7.842410 8.032089 -14.135637 18.290546 -10.989665 10.248702 15.419683 -10.753735 
-0.265173 0.252029 0.994532 89.037461 1.236671 87.593409 -0.770859 -1.113747 0.046549 -0.625228 -5.768390 5.570096 3.393921 10.325782 -13.123067 0.000000 -0.000000 0.000000 -1.608689 -0.451081 3.069940 1.442593 0.272914 -1.261814 1.961581 -5.552439 -9.352051 0.000000 -0.000000 0.000000 0.429109 1.504460 0.352094 2.075424 -4.735982 6.169762 0.954692 -1.488632 -3.902932 -4.263146 -0.816362 8.930782 3.820711 -2.785340 -3.172432 -17.282424 -2.394397 3.472619 -62.135124 -5.076602 14.146208 12.025310 -24.455370 1.777798 -12.945540 -17.152422 1.995050 15.913680 7.717377 1.812870 54.442995 8.342346 7.810050 -15.380793 20.191190 -12.421268 9.425863 15.987581 -11.380791 
-0.265553 0.252527 0.994530 89.281362 1.264541 87.679220 -0.746567 -1.187539 -0.092250 -0.645808 -5.783393 5.568355 3.429593 10.157554 -13.092728 0.000000 -0.000000 0.000000 -1.592244 -0.432416 3.039864 1.428084 0.065498 -1.365465 1.918187 -5.600609 -9.260897 0.000000 -0.000000 0.000000 0.354709 1.507220 0.495479 2.101330 -4.850843 6.202208 1.016517 -1.549077 -3.913192 -4.237575 -0.844793 8.633251 3.965918 -3.054323 -3.505473 -17.211623 -2.759526 3.350294 -61.922232 -5.423532 13.884550 12.393397 -24.583321 1.254832 -13.048878 -17.205020 2.144060 15.952170 7.922084 1.727080 54.845469 8.456777 7.831605 -16.169333 21.749404 -12.608075 9.404469 16.356176 -11.130679 
-0.265565 0.252822 0.994503 89.583113 1.281005 87.707001 -0.741361 -1.286070 -0.141257 -0.648372 -5.829155 5.559950 3.458721 9.988640 -13.077086 0.000000 -0.000000 0.000000 -1.569088 -0.434016 3.094772 1.404035 -0.168374 -1.441292 1.847725 -5.664659 -9.200488 0.000000 -0.000000 0.000000 0.213313 1.539103 0.586386 2.161380 -4.938990 6.327453 1.122227 -1.654412 -3.920289 -4.250597 -0.746929 8.367315 4.074499 -3.340830 -3.818509 -17.167442 -3.139733 3.273329 -61.778036 -5.745140 13.620143 12.622977 -24.621655 1.020890 -13.627204 -17.250624 2.633845 16.165152 8.145845 1.755551 55.220014 8.430424 7.941309 -16.711974 22.848935 -12.128166 9.968822 16.674999 -10.180257 
-0.265137 0.252885 0.994498 89.886095 1.306563 87.702049 -0.736305 -1.383840 -0.098095 -0.642195 -5.921021 5.484617 3.464041 9.862861 -13.046433 0.000000 -0.000000 0.000000 -1.510138 -0.465323 3.180760 1.365720 -0.370652 -1.464510 1.747191 -5.743579 -9.153931 0.000000 -0.000000 0.000000 0.083178 1.579329 0.653156 2.211289 -4.980414 6.399367 1.226934 -1.722358 -3.917146 -4.313072 -0.632516 8.138332 4.136351 -3.551024 -3.964488 -17.132622 -3.454189 3.234265 -61.752822 -6.021534 13.444352 12.775697 -24.501039 0.879748 -14.280451 -17.268052 3.075641 16.516456 8.344298 1.870492 55.578107 8.329388 8.061329 -16.933305 23.225363 -11.512076 10.805017 16.884024 -9.286843 
